<svg id="graphery" xmlns="http://www.w3.org/2000/svg" width="122" height="55"
     viewBox="0 0 490 220">
  <g>
    <path d="M26,190c0-1.55.74-2.32,2.21-2.32a2.5,2.5,0,0,1,1.1.24,3.34,3.34,0,0,1,.86.61c.24.25.65.64,1.22,1.17a23.32,23.32,0,0,0,1.84,1.53q5.15,4.17,13,4.17,9.93,0,14.58-5.4t4.54-15.56v-8.21q-7.25,6.61-18.14,6.62a22,22,0,0,1-17.4-7.72Q23,156.93,23,144.18t6.86-20.71q6.49-7.73,17.28-7.72a29.09,29.09,0,0,1,18.26,6.37v-3.8a2.39,2.39,0,0,1,.79-1.84,2.84,2.84,0,0,1,3.8,0,2.4,2.4,0,0,1,.8,1.84v55.39q0,12.85-6.25,19.48-6,6.62-18.14,6.62-9.43,0-15.68-4.66Q26,192.21,26,190Zm21.69-21.93q10.67,0,17.65-7V127.14a27,27,0,0,0-17.65-6.74,17,17,0,0,0-14.09,6.74q-5.15,6.37-5.15,17t5.15,17.4Q38.78,168.08,47.72,168.07Z"/>
    <path d="M111.32,115.75a18.63,18.63,0,0,1,10.29,2.69q2.94,2,2.94,3.8a2.17,2.17,0,0,1-.74,1.66,2.44,2.44,0,0,1-1.71.67,2.77,2.77,0,0,1-1.17-.25,15.11,15.11,0,0,1-1.71-1c-.78-.49-1.57-.93-2.39-1.34a13.79,13.79,0,0,0-6.25-1.35,13.2,13.2,0,0,0-11.15,5.88q-4.67,6.38-4.66,15.81V170.4a2.41,2.41,0,0,1-.79,1.84,2.73,2.73,0,0,1-1.9.73,2.69,2.69,0,0,1-1.9-.73,2.42,2.42,0,0,1-.8-1.84V118.32a2.4,2.4,0,0,1,.8-1.84,2.69,2.69,0,0,1,1.9-.73,2.73,2.73,0,0,1,1.9.73,2.39,2.39,0,0,1,.79,1.84V127h.13a16.57,16.57,0,0,1,6.18-8.21A17.33,17.33,0,0,1,111.32,115.75Z"/>
    <path d="M126.88,157.16q0-10.53,11.76-14.7,7.23-2.58,26.22-3.92V136.7q0-8-3.43-12.13t-11.51-4.29a31,31,0,0,0-12.26,2.45c-.9.41-1.78.86-2.63,1.35s-1.52.84-2,1a3,3,0,0,1-1.29.31c-1.39,0-2.08-.74-2.08-2.21,0-1.3,1.75-2.77,5.27-4.41a36.62,36.62,0,0,1,15.31-3.06q10.54,0,15.56,5.76,4.42,5.38,4.42,15.19v33.7a2.42,2.42,0,0,1-.8,1.84,2.84,2.84,0,0,1-3.8,0,2.42,2.42,0,0,1-.8-1.84v-1.59A38.25,38.25,0,0,1,147.34,173a25.81,25.81,0,0,1-14.27-4Q126.88,165,126.88,157.16Zm21.81,11.52a31,31,0,0,0,16.17-4.53V142.83q-16.29,1-22.05,2.69Q131.9,149,131.9,156.8a9.71,9.71,0,0,0,5,8.94A22.73,22.73,0,0,0,148.69,168.68Z"/>
    <path d="M191.21,116.73a76.12,76.12,0,0,1,12.62-1q14.34,0,22.91,7.59,9,7.72,8.95,20.84,0,12.49-7.11,20.46A26.6,26.6,0,0,1,208.49,173a33.43,33.43,0,0,1-15.08-3.18v27.69a2.41,2.41,0,0,1-.79,1.84,2.84,2.84,0,0,1-3.8,0,2.42,2.42,0,0,1-.8-1.84V120.4Q188,117.34,191.21,116.73Zm2.2,4.29v44.23a31.91,31.91,0,0,0,14.71,3.31,21.17,21.17,0,0,0,16-6.74q6.12-6.37,6.13-17.64,0-10.91-6.86-17.4-7.24-6.63-19.24-6.62A60.32,60.32,0,0,0,193.41,121Z"/>
    <path d="M294.38,170.4V140.87q0-11.4-5.27-16.18-4.41-4-12.74-4-11.14,0-16.54,9.68a29.17,29.17,0,0,0-3.43,13.85V170.4a2.42,2.42,0,0,1-.8,1.84,2.84,2.84,0,0,1-3.8,0,2.42,2.42,0,0,1-.8-1.84V89.77a2.4,2.4,0,0,1,.8-1.84,2.84,2.84,0,0,1,3.8,0,2.4,2.4,0,0,1,.8,1.84V128q6-12.25,20.83-12.25,10,0,15.81,4.78,6.61,5.88,6.61,19V170.4a2.41,2.41,0,0,1-.79,1.84,2.73,2.73,0,0,1-1.9.73,2.51,2.51,0,0,1-2.58-2.57Z"/>
    <path d="M362.15,162.43a1.87,1.87,0,0,1,1.47.74,2.48,2.48,0,0,1,.61,1.59q0,1.59-3.31,3.56A36.63,36.63,0,0,1,342.54,173q-13.73,0-21.81-9.43-6.75-8-6.74-20,0-11.76,7.11-19.6,7.22-8.2,20-8.21,11.64,0,18.87,7.84,6.62,7.23,6.62,18.38c0,2.29-1.07,3.43-3.19,3.43H319.63q.36,9.19,5.14,14.83,6.38,8.09,18,8.09a30.36,30.36,0,0,0,15.2-3.68,14,14,0,0,0,1.47-.86l1.1-.73a4.38,4.38,0,0,1,.8-.43A1.9,1.9,0,0,1,362.15,162.43Zm-42.52-21.2h41.66q-.12-9.18-5.27-14.45-5.52-6.37-14.95-6.38-10.67,0-16.42,7.11Q320,132.91,319.63,141.23Z"/>
    <path d="M403.56,115.75a18.58,18.58,0,0,1,10.29,2.69q2.94,2,2.94,3.8a2.16,2.16,0,0,1-.73,1.66,2.45,2.45,0,0,1-1.72.67,2.72,2.72,0,0,1-1.16-.25,15,15,0,0,1-1.72-1c-.77-.49-1.57-.93-2.38-1.34a13.82,13.82,0,0,0-6.25-1.35,13.22,13.22,0,0,0-11.16,5.88Q387,132.91,387,142.34V170.4a2.42,2.42,0,0,1-.8,1.84,2.84,2.84,0,0,1-3.8,0,2.41,2.41,0,0,1-.79-1.84V118.32a2.39,2.39,0,0,1,.79-1.84,2.84,2.84,0,0,1,3.8,0,2.4,2.4,0,0,1,.8,1.84V127h.12a16.64,16.64,0,0,1,6.19-8.21A17.32,17.32,0,0,1,403.56,115.75Z"/>
    <path d="M469.23,115.75a2.78,2.78,0,0,1,1.95.79,2.46,2.46,0,0,1,.86,1.87,7.42,7.42,0,0,1-.74,2.79l-21.44,53.31q-4.78,12.41-10.84,18.91a19.5,19.5,0,0,1-14.87,6.51,2.54,2.54,0,0,1-2-.8,2.81,2.81,0,0,1,0-3.8,2.53,2.53,0,0,1,2-.79,14.88,14.88,0,0,0,11.39-4.9q4.53-4.9,8.7-14.95l-23.77-53.92a6.39,6.39,0,0,1-.61-2.2,2.69,2.69,0,0,1,.84-2,2.88,2.88,0,0,1,2.05-.79,2.64,2.64,0,0,1,2.63,1.88L446.79,168l19.76-50.1C467.2,116.47,468.09,115.75,469.23,115.75Z"/>
    <path d="M22.81,24.46a6,6,0,0,0,6,6H136.51a6,6,0,0,0,0-12H28.8a6,6,0,0,0-6,6Z" style="fill: #d80000"/>
    <path d="M22.81,43a6,6,0,0,0,6,6H184.38a6,6,0,0,0,0-12H28.8a6,6,0,0,0-6,6Z" style="fill: #00d800"/>
    <path d="M22.81,61.52a6,6,0,0,0,6,6h83.77a6,6,0,1,0,0-12H28.8a6,6,0,0,0-6,6Z" style="fill: #0000d8"/>
  </g>
</svg>
